<svg xmlns="http://www.w3.org/2000/svg" xmlns:xlink="http://www.w3.org/1999/xlink" width="500" zoomAndPan="magnify" viewBox="0 0 375 374.999991" height="500" preserveAspectRatio="xMidYMid meet" version="1.0"><defs><g/><clipPath id="80becc6f76"><rect x="0" width="365" y="0" height="321"/></clipPath></defs><g transform="matrix(1, 0, 0, 1, 5, 27)"><g clip-path="url(#80becc6f76)"><g fill="#ffffe3" fill-opacity="1"><g transform="translate(5.215553, 247.788425)"><g><path d="M 58.1875 -56.640625 C 58.1875 -50.253906 59.09375 -44.347656 60.90625 -38.921875 C 62.71875 -33.492188 65.171875 -28.796875 68.265625 -24.828125 C 71.367188 -20.859375 75.078125 -17.753906 79.390625 -15.515625 C 83.703125 -13.273438 88.441406 -12.15625 93.609375 -12.15625 C 103.960938 -12.15625 111.8125 -16.894531 117.15625 -26.375 C 122.5 -35.863281 125.171875 -49.828125 125.171875 -68.265625 C 125.171875 -86.203125 122.539062 -99.867188 117.28125 -109.265625 C 112.019531 -118.660156 104.128906 -123.359375 93.609375 -123.359375 C 87.410156 -123.359375 81.679688 -121.675781 76.421875 -118.3125 C 71.160156 -114.945312 67.066406 -110.25 64.140625 -104.21875 C 60.171875 -95.945312 58.1875 -85.515625 58.1875 -72.921875 Z M 57.671875 -119.21875 L 58.703125 -119.21875 C 63.179688 -125.769531 68.957031 -130.8125 76.03125 -134.34375 C 83.101562 -137.882812 91.117188 -139.65625 100.078125 -139.65625 C 109.210938 -139.65625 117.703125 -137.800781 125.546875 -134.09375 C 133.398438 -130.382812 140.210938 -125.335938 145.984375 -118.953125 C 151.753906 -112.578125 156.273438 -105.078125 159.546875 -96.453125 C 162.828125 -87.835938 164.46875 -78.617188 164.46875 -68.796875 C 164.46875 -58.453125 162.703125 -48.925781 159.171875 -40.21875 C 155.640625 -31.507812 150.8125 -23.960938 144.6875 -17.578125 C 138.570312 -11.203125 131.414062 -6.203125 123.21875 -2.578125 C 115.03125 1.035156 106.367188 2.84375 97.234375 2.84375 C 87.753906 2.84375 78.832031 0.988281 70.46875 -2.71875 C 62.101562 -6.425781 55.421875 -11.296875 50.421875 -17.328125 L 30.78125 0 L 21.984375 0 L 21.984375 -153.875 C 21.984375 -170.082031 20.863281 -181.203125 18.625 -187.234375 C 18.101562 -188.441406 17.5 -189.472656 16.8125 -190.328125 C 16.125 -191.191406 15.128906 -191.925781 13.828125 -192.53125 C 12.535156 -193.132812 10.769531 -193.648438 8.53125 -194.078125 C 6.289062 -194.515625 3.359375 -194.992188 -0.265625 -195.515625 L -0.265625 -204.296875 L 57.671875 -214.640625 Z M 57.671875 -119.21875 "/></g></g></g><g fill="#ffffe3" fill-opacity="1"><g transform="translate(179.516498, 247.788425)"><g><path d="M 56.375 -120.25 L 57.40625 -120.25 C 68.789062 -133.1875 83.617188 -139.65625 101.890625 -139.65625 C 111.890625 -139.65625 121.066406 -137.882812 129.421875 -134.34375 C 137.785156 -130.8125 145.03125 -125.898438 151.15625 -119.609375 C 157.28125 -113.316406 162.019531 -105.816406 165.375 -97.109375 C 168.738281 -88.398438 170.421875 -78.875 170.421875 -68.53125 C 170.421875 -58.1875 168.738281 -48.703125 165.375 -40.078125 C 162.019531 -31.460938 157.320312 -23.960938 151.28125 -17.578125 C 145.25 -11.203125 138.050781 -6.242188 129.6875 -2.703125 C 121.332031 0.828125 112.238281 2.59375 102.40625 2.59375 C 85.6875 2.59375 72.929688 -3.097656 64.140625 -14.484375 L 63.09375 -14.484375 L 63.09375 21.46875 C 63.09375 28.363281 63.4375 33.878906 64.125 38.015625 C 64.820312 42.148438 66.289062 45.335938 68.53125 47.578125 C 70.769531 49.828125 73.914062 51.378906 77.96875 52.234375 C 82.019531 53.097656 87.410156 53.617188 94.140625 53.796875 L 94.140625 64.65625 L 4.90625 64.65625 L 4.90625 53.796875 C 9.5625 53.617188 13.351562 53.097656 16.28125 52.234375 C 19.21875 51.378906 21.503906 49.828125 23.140625 47.578125 C 24.785156 45.335938 25.90625 42.273438 26.5 38.390625 C 27.101562 34.515625 27.40625 29.476562 27.40625 23.28125 L 27.40625 -72.921875 C 27.40625 -80.859375 27.234375 -88.398438 26.890625 -95.546875 C 26.546875 -102.703125 26.117188 -107.75 25.609375 -110.6875 C 24.742188 -114.644531 22.800781 -117.398438 19.78125 -118.953125 C 16.769531 -120.503906 11.640625 -121.28125 4.390625 -121.28125 L 4.390625 -131.375 L 56.375 -138.609375 Z M 100.34375 -124.90625 C 94.820312 -124.90625 89.5625 -123.695312 84.5625 -121.28125 C 79.5625 -118.875 75.597656 -115.6875 72.671875 -111.71875 C 69.734375 -107.75 67.488281 -102.789062 65.9375 -96.84375 C 64.394531 -90.894531 63.625 -84.472656 63.625 -77.578125 L 63.625 -60 C 63.625 -47.757812 66.640625 -37.328125 72.671875 -28.703125 C 79.222656 -19.222656 88.445312 -14.484375 100.34375 -14.484375 C 110.851562 -14.484375 118.648438 -18.835938 123.734375 -27.546875 C 128.828125 -36.253906 131.375 -49.742188 131.375 -68.015625 C 131.375 -105.941406 121.03125 -124.90625 100.34375 -124.90625 Z M 100.34375 -124.90625 "/></g></g></g></g></g></svg>